<svg id="Layer_1" data-name="Layer 1" xmlns="http://www.w3.org/2000/svg" width="2.24in" height="2.39in" viewBox="0 0 161 172"><title>Twitter</title><rect x="26.51" y="33.7" width="112" height="112" rx="15.68" ry="15.68" fill="#9c8881"/><path d="M81.51,76.87s-3-14,10-19c9-3,19,4,19,4s7-2,10-4a14.22,14.22,0,0,1-6.24,8.58,24.61,24.61,0,0,0,8.82-2s-4.32,6.66-7.92,8.28c0,0,2,38.71-35.16,48.72C55.16,124.94,41.94,116,41.94,116s11.87,1.24,24-7.17c0,0-11.74-.12-15.45-11.74,0,0,5.93.87,6.92-.49,0,0-13-2.6-12.73-16.69,0,0,4.2,2.35,7.17,2.22,0,0-11.87-8.28-5.07-23C46.76,59.18,59.9,76.4,81.51,76.87Z" fill="#fffbfa" stroke="#9c8881" stroke-miterlimit="10"/></svg>