<svg id="Layer_1" data-name="Layer 1" xmlns="http://www.w3.org/2000/svg" width="1.11in" height="1.11in" viewBox="0 0 80 80"><title>logo-64-white</title><path d="M39.49,55.1v3.37s-.11,1,1.7,1c0,0,1.32.08,1.35-.81V55.09A9.83,9.83,0,0,1,41,53.67,8.94,8.94,0,0,1,39.49,55.1Z" fill="#fff"/><path d="M30.57,36s-.23-7.08-4-2.81-9.56,12.1-8.37,14.45,6.44,4.34,7.66,1.81S30.57,36,30.57,36Zm20.53-.06s.08-7.08,3.9-2.89,9.81,11.84,8.67,14.26-6.35,4.48-7.61,2S51.1,35.95,51.1,35.95Z" fill="#fff"/><circle cx="40.95" cy="47.75" r="1.9" fill="#fff"/><path d="M41,49.68v4c-.87,1.91-4.37,2.75-6.28,1.88a3.8,3.8,0,0,1-1-.7M41,53.62s3.82,4.56,7.64,1" fill="none" stroke="#fff" stroke-linecap="round" stroke-linejoin="round" stroke-width="0.94"/><circle cx="39.84" cy="40.51" r="39.24" fill="none" stroke="#fff" stroke-linecap="round" stroke-linejoin="round"/><circle cx="39.84" cy="40.51" r="36.63" fill="none" stroke="#fff" stroke-linecap="round" stroke-linejoin="round"/><path d="M14.14,25.88l2.22-.15-.41.66-2.11.11v.1l1.46.91-.34.54-3.7-2.25.4-.64a1.86,1.86,0,0,1,.91-.86,1.15,1.15,0,0,1,1,.14,1.25,1.25,0,0,1,.52.62A1.15,1.15,0,0,1,14.14,25.88Zm-.84.41.11-.17q.47-.77-.11-1.14t-1,.4l-.12.19ZM16,22.51A2.07,2.07,0,0,1,15.39,21,2.15,2.15,0,0,1,16,19.4a2.21,2.21,0,0,1,3.12-.06,2.07,2.07,0,0,1,.66,1.54,2.22,2.22,0,0,1-2,2.25A2.07,2.07,0,0,1,16,22.51Zm.45-.46a1.56,1.56,0,0,0,2.65-1.14,1.64,1.64,0,0,0-1.64-1.56A1.57,1.57,0,0,0,16,21h0A1.52,1.52,0,0,0,16.48,22Zm5.64-4.7-2.5-1.17.6-.42,1.76.84-.17-1.94.6-.42L22.66,17l1,1.5-.52.36Zm6.18-2.56-1.65.75v1.12L26,17V12l3.75,3.25-.64.29Zm-.44-.44-1.25-1v1.57Zm3.75-4,.89,3.51,1.25-.3.15.57-1.82.46L31,10.5Zm9.72,1.41,1.25,1.85h-.77l-1.14-1.77h-.11l-.07,1.72h-.64L40,9.34h.75A1.87,1.87,0,0,1,42,9.7a1.16,1.16,0,0,1,.37.94,1.25,1.25,0,0,1-.29.76A1.15,1.15,0,0,1,41.34,11.76Zm-.77-.51h.2q.9,0,.94-.65t-.85-.69h-.22Zm7.51-.31-1.65-.36-.22,1,1.66.31-.12.59-1.61-.35-.3,1.37,1.65.36-.12.59L45.08,14,46,9.85l2.27.5Zm5.32,1.91-.54.11a.9.9,0,0,0-.12-.41.64.64,0,0,0-.29-.21.65.65,0,0,0-.46,0,.46.46,0,0,0-.3.27q-.12.29.24.64l.32.32a1.8,1.8,0,0,1,.5.76,1.15,1.15,0,0,1,0,.77,1.25,1.25,0,0,1-.72.74,1.34,1.34,0,0,1-1,0,1.25,1.25,0,0,1-.71-.65,1.51,1.51,0,0,1,0-1l.65.11a1.1,1.1,0,0,0,0,.54.72.72,0,0,0,.9.5l.07,0a.75.75,0,0,0,.42-.61.56.56,0,0,0,0-.21.84.84,0,0,0-.11-.22A1.79,1.79,0,0,0,52,14l-.31-.31a1.17,1.17,0,0,1-.39-1.32,1,1,0,0,1,.32-.65,1.32,1.32,0,0,1,1,0A1.25,1.25,0,0,1,53.39,12.84Zm5.79,3-.41.62a1.76,1.76,0,0,0-.7-1,1.46,1.46,0,0,0-1.17-.21,1.57,1.57,0,0,0-1,.7,1.54,1.54,0,0,0-.24,1.19,1.49,1.49,0,0,0,.66,1,1.34,1.34,0,0,0,.54.22h.69l-.42.64A2.29,2.29,0,0,1,56,18.56a2.16,2.16,0,0,1-.66-3h0a2.17,2.17,0,0,1,1.25-.91,2.12,2.12,0,0,1,1.85.29A2.16,2.16,0,0,1,59.19,15.8Zm3.25,2.45-1.8,1.8a1.4,1.4,0,0,0-.44.69.95.95,0,0,0,1.06,1.06,1.36,1.36,0,0,0,.69-.44l1.8-1.8.45.45-1.92,1.92a1.52,1.52,0,0,1-1.07.49,1.61,1.61,0,0,1-1.62-1.6s0,0,0,0a1.52,1.52,0,0,1,.49-1.07L62,17.84Zm4.85,6.83-.95-1.4-.84.57.92,1.36-.5.34L65,24.6l-1.16.8.95,1.4-.5.34L63,25.2l3.5-2.36,1.25,1.92Z" fill="#fff"/><line x1="41" y1="59.49" x2="41" y2="57.45" fill="none" stroke="#8d8d8b" stroke-linecap="round" stroke-miterlimit="10" stroke-width="0.19"/></svg>