<svg id="Layer_1" data-name="Layer 1" xmlns="http://www.w3.org/2000/svg" width="3.56in" height="3.56in" viewBox="0 0 256 256"><title>Logo-256</title><path d="M98.51,112.65S93,100.2,87.05,109.72s-14.45,26.35-10,30,18.43,4.39,19.43-.73S98.51,112.65,98.51,112.65Z" fill="#8d8d8b"/><path d="M150.49,112.65s5.48-12.44,11.46-2.93,14.45,26.35,10,30-18.43,4.39-19.43-.73S150.49,112.65,150.49,112.65Z" fill="#8d8d8b"/><circle cx="125.4" cy="144.86" r="4.76" fill="#8d8d8b"/><path d="M125.4,149.61v9.88s-4.93,10.25-15.18,2.93" fill="none" stroke="#8d8d8b" stroke-linecap="round" stroke-linejoin="round" stroke-width="1.46"/><path d="M125.4,159.5s6.42,11.35,15.93,2.56" fill="none" stroke="#8d8d8b" stroke-linecap="round" stroke-linejoin="round" stroke-width="1.46"/><circle cx="126.9" cy="128.9" r="123.1" fill="none" stroke="#8d8d8b" stroke-miterlimit="10" stroke-width="1.8"/><circle cx="126.9" cy="128.9" r="114.89" fill="none" stroke="#8d8d8b" stroke-miterlimit="10" stroke-width="1.68"/><path d="M46.14,79l7-.48-1.3,2.07L45.2,81l-.19.31,4.6,2.87-1.06,1.69-11.23-7,1.24-2a5.85,5.85,0,0,1,2.85-2.69,3.62,3.62,0,0,1,3.14.45,3.76,3.76,0,0,1,1.62,2A3.59,3.59,0,0,1,46.14,79Zm-2.61,1.3.34-.54q1.51-2.41-.33-3.56t-3.19,1.26l-.38.6Z" fill="#8d8d8b"/><path d="M52.21,68.53a6.49,6.49,0,0,1-2.05-4.8,6.75,6.75,0,0,1,1.94-4.93,6.93,6.93,0,0,1,9.74-.22,6.51,6.51,0,0,1,2.09,4.83,7,7,0,0,1-6.44,7.06A6.51,6.51,0,0,1,52.21,68.53Zm1.41-1.44A4.91,4.91,0,0,0,62,63.51a5.13,5.13,0,0,0-5.12-4.92,4.94,4.94,0,0,0-4.82,5A4.77,4.77,0,0,0,53.62,67.09Z" fill="#8d8d8b"/><path d="M71.4,52.32l-7.85-3.7,1.89-1.31L71,49.91l-.53-6.08,1.89-1.31L73,51.17l3.27,4.69L74.67,57Z" fill="#8d8d8b"/><path d="M90.89,44.28l-5.16,2.35v3.54l-2,.89.13-15.53L95.48,45.72l-2,.91Zm-1.52-1.37-3.65-3.28v5Z" fill="#8d8d8b"/><path d="M101.23,30.31l2.79,11,3.78-1,.46,1.82-5.71,1.44L99.29,30.8Z" fill="#8d8d8b"/><path d="M131.8,34.81l3.86,5.81-2.44-.1-3.55-5.58-.36,0-.23,5.42-2-.08L127.64,27l2.34.1a5.85,5.85,0,0,1,3.75,1.15,3.63,3.63,0,0,1,1.16,3A3.77,3.77,0,0,1,134,33.6,3.59,3.59,0,0,1,131.8,34.81Zm-2.42-1.62.63,0q2.84.12,2.93-2T130.27,29l-.71,0Z" fill="#8d8d8b"/><path d="M152.88,32.25l-5.18-1.15L147,34.2l5,1.12-.41,1.83-5-1.12-1,4.32,5.18,1.15-.41,1.83-7.13-1.59,2.88-12.93,7.13,1.59Z" fill="#8d8d8b"/><path d="M169.6,38.38l-1.87.26a2.78,2.78,0,0,0-.4-1.28,2.3,2.3,0,0,0-2.37-.78,1.46,1.46,0,0,0-1,.87q-.37.9.73,2l1,1a5.64,5.64,0,0,1,1.56,2.38,3.6,3.6,0,0,1-.2,2.41,4.05,4.05,0,0,1-2.29,2.32,4.18,4.18,0,0,1-3.27-.07,4.06,4.06,0,0,1-2.23-2,4.72,4.72,0,0,1-.16-3.19l2,.37a3.43,3.43,0,0,0-.18,1.67,2.28,2.28,0,0,0,3,1.51,2.17,2.17,0,0,0,1.18-1.22,2.27,2.27,0,0,0,.17-.69,1.8,1.8,0,0,0-.08-.67,2.67,2.67,0,0,0-.35-.69,5.7,5.7,0,0,0-.62-.75l-1-1q-2.07-2.11-1.21-4.15a3.19,3.19,0,0,1,2-1.86,4.13,4.13,0,0,1,3,.16A4,4,0,0,1,169.6,38.38Z" fill="#8d8d8b"/><path d="M187.81,47.66l-1.3,2a5.55,5.55,0,0,0-2.19-3.19,4.57,4.57,0,0,0-3.68-.68A4.94,4.94,0,0,0,177.5,48a4.83,4.83,0,0,0-.77,3.71,4.65,4.65,0,0,0,2.08,3.1,4.23,4.23,0,0,0,1.68.7,5.17,5.17,0,0,0,1,.08,10.12,10.12,0,0,0,1.17-.07l-1.33,2a7.19,7.19,0,0,1-3.54-1.18A6.65,6.65,0,0,1,174.81,52a6.57,6.57,0,0,1,1-5.12A6.8,6.8,0,0,1,179.69,44a6.66,6.66,0,0,1,5.78.92A6.8,6.8,0,0,1,187.81,47.66Z" fill="#8d8d8b"/><path d="M198,55.36,192.32,61A4.38,4.38,0,0,0,191,63.15a3,3,0,0,0,3.31,3.32,4.31,4.31,0,0,0,2.16-1.37l5.64-5.63,1.41,1.42-6,6a4.77,4.77,0,0,1-3.36,1.51A5,5,0,0,1,189,63.33,4.77,4.77,0,0,1,190.52,60l6-6Z" fill="#8d8d8b"/><path d="M213.14,76.85l-3-4.4-2.64,1.78,2.89,4.27-1.56,1.05L206,75.29l-3.67,2.48,3,4.4-1.56,1.05-4.1-6.05,11-7.42,4.1,6.05Z" fill="#8d8d8b"/></svg>