<svg id="Layer_1" width="4.13in" height="4.19in" data-name="Layer 1" viewBox="0 0 297 302">
  <path id="circle" fill="none" stroke="#000" stroke-miterlimit="10" stroke-width="4" d="M150.21 284.09c-37.56-.5-69.6-13.38-96-39.6-25-24.82-38.28-55.12-39.65-90.19C13.1 116.58 25.5 83.53 51.43 56c24.24-25.7 54.34-39.92 89.6-42 37.53-2.24 70.82 9.11 98.88 34.33 25.68 23.08 40.72 52 44.06 86.42 4 41-8 77.11-36.38 107.09-26.43 27.91-59.36 41.62-97.38 42.25z"/>
  <g id="all">
    <path d="M127.78 128.28c1.92 4.24 3.72 8.2 5.5 12.16q5.14 11.43 10.27 22.88c.76 1.69 1.48 3.4 2.25 5.08.34.74.13 1-.65 1h-4.66c-1 0-1.13-.71-1.4-1.33-1-2.33-2.08-4.66-3-7a1.4 1.4 0 0 0-1.57-1h-14a1.59 1.59 0 0 0-1.68 1.12c-1 2.34-2.16 4.63-3.15 7a1.81 1.81 0 0 1-2.07 1.26c-1.1-.08-2.2 0-3.31 0-1.69 0-1.72 0-1-1.65s1.48-3.18 2.22-4.76l15.83-33.88c.07-.23.16-.39.42-.88zm.08 13.85l-.41-.06c-1.77 3.89-3.56 7.78-5.31 11.68-.36.8.39.62.76.62h9.16c.84 0 1.09-.21.73-1-1.65-3.74-3.28-7.49-4.93-11.24z"/>
    <path d="M150.83 150.18v-17.89c0-1.12.31-1.54 1.44-1.44a13.31 13.31 0 0 0 2.7 0c1.31-.14 1.71.29 1.7 1.65-.07 6.46 0 12.93 0 19.4 0 3.36.06 6.72 0 10.07 0 1.33.26 1.85 1.71 1.78 2.7-.12 5.41 0 8.12-.06 1.2 0 1.77.23 1.62 1.55a13.32 13.32 0 0 0 0 2.7c.1 1.08-.22 1.49-1.4 1.48q-7.22-.1-14.43 0c-1.19 0-1.4-.43-1.39-1.5-.05-5.92-.07-11.82-.07-17.74z"/>
    <path d="M173.4 150.07v-17.75c0-1.08.24-1.59 1.41-1.47 1.38.15 3.15-.57 4.07.28s.3 2.66.31 4v26.92c0 1.36.39 1.7 1.69 1.65 2.8-.1 5.61 0 8.42 0 .92 0 1.32.18 1.34 1.23.09 4.47.12 4.47-4.35 4.47h-11.43c-1.12 0-1.46-.32-1.45-1.45.02-5.95-.01-11.95-.01-17.88z"/>
  </g>
</svg>
