<svg width="210" height="82.5" data-name="Layer 1" viewBox="0 0 210 82.5">
  <rect width="194.47" height="69.66" x="6.71" y="6.01" fill="#fff" stroke="#756661" stroke-miterlimit="10" stroke-width="2.86" rx="21.29" ry="21.29"/>
  <path fill="#756661" d="M94.67 48.78a11.39 11.39 0 0 1-8.84 4 12 12 0 0 1 0-23.94 11.36 11.36 0 0 1 8.77 4l-2.37 2a8.64 8.64 0 0 0-15.07 6.06 8.72 8.72 0 0 0 8.67 8.9 8.44 8.44 0 0 0 6.47-3zm6.8-2.23l-2.27 5.92h-3.35l8.87-23.33h3.39l8.84 23.33h-3.32l-2.27-5.93zm8.8-2.84l-3.86-10.36-3.86 10.35zm23.6-14.57v3h-7.08v20.33h-3.18V32.12h-7.08v-3z"/>
</svg>
