<svg id="Layer_1" width="4.19in" height="4.14in" data-name="Layer 1" viewBox="0 0 302 298">
  <path id="circle" fill="none" stroke="#000" stroke-miterlimit="10" stroke-width="4" d="M288 146.29C288.4 221 226.36 284.76 147.76 283 75.39 281.3 14.2 222 14.28 145.82 14.37 70.21 75.87 9.08 151.35 9.17 227.06 9.26 288.43 71 288 146.29z"/>
  <g id="Paws">
    <path d="M138.27 91.91a28.22 28.22 0 0 1 16.53 4.71 1.47 1.47 0 0 0 1.58.13 32.81 32.81 0 0 1 13.46-2.81c9.7.23 16.67 4.94 21.51 13.1 2.3 3.87 3.27 8.19 4 12.57a17.31 17.31 0 0 0 1.16 3.86 4.57 4.57 0 0 0 1.75 2.06c4.52 3 6.88 7.3 7.77 12.5a20.22 20.22 0 0 1-1.67 12.97 18.23 18.23 0 0 1-5.38 6.52c-1.55 1.14-1.66 2.47-1.5 4 .64 6.56 1.27 13.11 1.43 19.7.1 4.28.37 8.56.55 12.83a2.35 2.35 0 0 1-1.3 2.38 2.2 2.2 0 0 1-2.33-.17 2 2 0 0 1-1-1.66c-.18-4.81-.32-9.62-.59-14.43-.31-5.61-.63-11.22-1.3-16.81a28.05 28.05 0 0 1 0-5.05 5.19 5.19 0 0 1 2.5-4c7.6-5.42 7.93-15.18 3.52-21.86a8.16 8.16 0 0 0-2.63-2.65c-2.81-1.62-4.14-4.21-5-7.16-1-3.65-1.3-7.49-2.88-11-3-6.6-7.73-11.12-14.91-12.68-5.05-1.1-9.94-.07-14.68 1.78a17.1 17.1 0 0 0-1.85.8 3.18 3.18 0 0 1-3.73-.29c-7.94-5.62-16.48-6.09-25.38-2.68-6.61 2.53-10 7.9-12.05 14.26a20.15 20.15 0 0 0-1 4.06 2.83 2.83 0 0 1-1.9 2.19 22.78 22.78 0 0 0-8.73 6.49c-4.57 6-6 12.55-3 19.76a28.38 28.38 0 0 0 4.15 7.41c2.59 3.1 2.61 6.55 2.17 10.18a11.81 11.81 0 0 0-.14 1.29c-.08 8.24-.66 16.46-.67 24.7 0 1.86-.17 3.75-.2 5.62 0 1.33-1 1.87-2 2.07a2 2 0 0 1-2.41-1.57 5.38 5.38 0 0 1-.14-2.29c.41-3.75.14-7.51.26-11.27q.32-9.74.61-19.49a3.85 3.85 0 0 1 .07-.72 6.59 6.59 0 0 0-1.16-5.55 36.1 36.1 0 0 1-6.22-13.09c-1.58-7.38.48-13.89 4.87-19.79a25.1 25.1 0 0 1 9-7.15 2.34 2.34 0 0 0 1.29-1.68 30.94 30.94 0 0 1 7.3-14.22c4.15-4.42 9.45-6.47 15.25-7.56a28.91 28.91 0 0 1 5.02-.31z"/>
    <path d="M151.49 164c-4.75.18-9.31-.3-13.89-.33a10.11 10.11 0 0 1-4.86-1.23c-3.2-1.78-4.21-5-3.16-9.15a12.59 12.59 0 0 1 7.11-8.73c5.07-2.48 10.28-4.14 16-3.67 6.65.55 12.72 2.76 17.08 8a10.51 10.51 0 0 1 1.93 10.6 5.79 5.79 0 0 1-3.71 3.41 12.43 12.43 0 0 1-4.23.82c-4.16-.04-8.29.45-12.27.28z"/>
    <path d="M168.41 109.28a11.64 11.64 0 0 1 11.64 11.8 11.81 11.81 0 0 1-23.61 0 11.58 11.58 0 0 1 11.97-11.8z"/>
    <path d="M125.94 119.82A11.54 11.54 0 0 1 137.23 108a11.8 11.8 0 1 1 .41 23.59c-6.49-.06-11.96-5.47-11.7-11.77z"/>
    <path d="M116.51 126.37a9.14 9.14 0 0 1 9.11 9.11c0 4.69-4.23 9-8.78 9-5.37 0-9.39-3.88-9.4-9a9.07 9.07 0 0 1 9.07-9.11z"/>
    <path d="M184.86 132.44a8.81 8.81 0 0 1 9.1 8.94 9.06 9.06 0 0 1-18.11.11 8.77 8.77 0 0 1 9.01-9.05z"/>
  </g>
</svg>
