<svg width="207" height="84" data-name="Layer 1" viewBox="0 0 207 84">
  <rect width="194.47" height="69.66" x="6.51" y="8.61" fill="#fff" stroke="#756661" stroke-miterlimit="10" stroke-width="2.86" rx="21.29" ry="21.29"/>
  <path fill="#756661" d="M67.37 56.08V32.75h9c6.64 0 10.5 5.08 10.5 11.72S83 56.08 76.41 56.08zm9-2.95c4.84 0 7.35-3.76 7.35-8.67s-2.51-8.77-7.35-8.77h-5.85v17.44zm25.77-20.66a12 12 0 1 1-11.78 12 11.83 11.83 0 0 1 11.78-12zm0 20.89a8.93 8.93 0 1 0-8.63-8.9 8.7 8.7 0 0 0 8.63 8.91zm32.57-15.7a8.47 8.47 0 0 0-5.62-2.17 8.75 8.75 0 0 0-8.63 9 8.72 8.72 0 0 0 8.63 8.94c4.2 0 7.25-2.44 7.45-6.3h-6.64v-2.77h10.23c0 8.19-4.37 12.05-11 12.05a12 12 0 0 1 0-23.94 11.53 11.53 0 0 1 7.87 3.09z"/>
</svg>
