<svg id="Layer_1" width="4.11in" height="4.21in" data-name="Layer 1" viewBox="0 0 296 303">
  <path id="circle" fill="none" stroke="#000" stroke-miterlimit="10" stroke-width="4" d="M149.34 287.34c-75-.08-136.14-61.1-135.41-136.68C14.28 113.79 27.62 82 53.62 56 80 29.54 112.4 16.15 149.76 16.24a135.55 135.55 0 0 1-.42 271.1z"/>
  <g id="bones">
    <path d="M154.41 114a7.09 7.09 0 0 1 5.58 2.22q12.93 12.88 25.8 25.81a8 8 0 0 1 0 11.25l-40 40a7.86 7.86 0 0 1-11.56-.07q-12.7-12.64-25.35-25.34a8.23 8.23 0 0 1 .06-12q10.58-10.63 21.21-21.22l18-18a7.91 7.91 0 0 1 6.26-2.65z"/>
    <path d="M114.46 207.71c.27-2.52-1-4.45-2.42-6.33s-1.33-2.52.3-4.15c2.9-2.91 5.83-5.79 8.7-8.73.68-.7 1.08-.75 1.81 0 2.48 2.44 2.51 2.41 0 4.89-1.64 1.64-3.22 3.36-5 4.9a2 2 0 0 0-.47 3c4.08 7 1 14-4.51 17.7-7.91 5.38-16.59 0-18.22-7.41a4.54 4.54 0 0 1-.32-1.57c.4-2.34-.87-2.44-2.74-2.55-4.71-.27-9-4-10.34-8.77-1.24-4.27.6-9.56 4.18-12.48 5.07-4.13 10.38-4.6 16-1.28.82.48 1.17.3 1.73-.27 2.23-2.28 4.53-4.49 6.74-6.79.81-.85 1.34-.94 2.22 0 2.24 2.29 2.28 2.25 0 4.49-2.41 2.41-4.81 4.83-7.23 7.22-1.82 1.8-2.52 1.83-4.57.3-5.48-4.09-11.63-2.7-14.25 3.22a6.76 6.76 0 0 0 1.48 7.62 7.37 7.37 0 0 0 7.93 1.63 9.14 9.14 0 0 0 1.15-.6 2.29 2.29 0 0 1 3.21.29 2.55 2.55 0 0 1 .37 3.37c-2.07 3.9-1.19 7.64 2.23 10a7.16 7.16 0 0 0 8.82-.93c2.01-1.87 3.49-3.94 3.2-6.77z"/>
    <path d="M198.73 128a11.49 11.49 0 0 1-6.81-2 1.34 1.34 0 0 0-2 .28c-1.87 2-3.85 3.8-5.7 5.77-.75.8-1.19.72-1.93 0-2.37-2.39-2.4-2.36 0-4.78l6-6c1.79-1.79 2.53-1.85 4.58-.29a11 11 0 0 0 4.61 2.23c4.64.89 9.88-3 10.15-7.7a6.83 6.83 0 0 0-3.52-6.5 6.59 6.59 0 0 0-7.35-.09 2.63 2.63 0 0 1-3.42-.07 2.28 2.28 0 0 1-.45-3.32c3-4.36 0-10.55-5.46-11.22-2.4-.3-5.89 1.7-7.5 4.34-2.18 3.56-1.55 6.86.76 10.08 2 2.73 1.89 3.16-.52 5.58-2.22 2.22-4.47 4.41-6.64 6.67-.8.83-1.32 1-2.21.06-2.24-2.3-2.29-2.26-.05-4.5 1.38-1.38 2.7-2.81 4.15-4.11a1.81 1.81 0 0 0 .44-2.73 12 12 0 0 1-1-11.47c2.93-6.79 10.3-10.42 16.68-7.6 4 1.76 7.56 7 7.13 11.25-.15 1.52.43 1.49 1.44 1.41 5.21-.39 10.59 4 11.82 9 1.12 4.56-1 9.9-5.31 13a11.67 11.67 0 0 1-7.89 2.71z"/>
  </g>
</svg>
