<svg xmlns="http://www.w3.org/2000/svg"><symbol id="fail" viewBox="0 0 85.54 86.9"><path id="fail" fill="#231f20" d="M42.83 13.26a31.89 31.89 0 1 0 31.89 31.89 31.89 31.89 0 0 0-31.89-31.89zm16.92 48.86a1.92 1.92 0 0 1-2.71 0L43.51 48.57 31 63a1.92 1.92 0 0 1-2.89-2.52l12.67-14.62-13.13-13.13A1.92 1.92 0 1 1 30.36 30L43.3 43l11.9-13.65a1.92 1.92 0 1 1 2.89 2.52L46 45.7l13.75 13.71a1.92 1.92 0 0 1 0 2.71z"/></symbol><symbol id="check" viewBox="0 0 77.49 78.72"><path id="check" fill="#231f20" d="M38.7 6.84a31.89 31.89 0 1 0 31.89 31.89A31.89 31.89 0 0 0 38.7 6.84zM58.12 29.4L33.64 54.72a1.91 1.91 0 0 1-1.38.58h-.14a1.92 1.92 0 0 1-1.42-.79L23.11 44a1.92 1.92 0 1 1 3.11-2.24l6.26 8.69 22.89-23.72a1.92 1.92 0 1 1 2.75 2.66z"/></symbol><symbol id="up" viewBox="0 0 83.54 84.86"><path id="up" fill="#231f20" d="M42.09 11.28A31.89 31.89 0 1 0 74 43.17a31.89 31.89 0 0 0-31.91-31.89zM57.7 55.54a1.92 1.92 0 0 1-2.64-.6L42.79 35.41l-13.7 20.1a1.92 1.92 0 1 1-3.17-2.16l15.36-22.52a1.92 1.92 0 0 1 3.21.06l13.82 22a1.92 1.92 0 0 1-.61 2.65z"/></symbol><symbol id="back" viewBox="0 0 83.54 84.86"><path id="back" fill="#231f20" d="M10.2 43.17a31.89 31.89 0 1 0 31.89-31.89A31.89 31.89 0 0 0 10.2 43.17zm44.26-15.61a1.92 1.92 0 0 1-.6 2.64L34.33 42.47l20.1 13.71a1.92 1.92 0 1 1-2.16 3.17L29.75 44a1.92 1.92 0 0 1 .06-3.21L51.82 27a1.92 1.92 0 0 1 2.64.56z"/></symbol></svg>