<svg id="Layer_1" data-name="Layer 1" xmlns="http://www.w3.org/2000/svg" width="0.22in" height="0.22in" viewBox="0 0 16 16"><title>Logo-16</title><path d="M4.17,4.65s-1-2.29-2.1-.54S-.59,9,.23,9.63s3.39.81,3.57-.13S4.17,4.65,4.17,4.65Z" fill="#8d8d8b"/><path d="M11.83,4.65s1-2.29,2.1-.54S16.59,9,15.77,9.63s-3.39.81-3.57-.13S11.83,4.65,11.83,4.65Z" fill="#8d8d8b"/><circle cx="8.17" cy="9.76" r="0.87" fill="#8d8d8b"/><path d="M8.17,10.1v1.82a1.74,1.74,0,0,1-2.79.54" fill="none" stroke="#8d8d8b" stroke-linecap="round" stroke-linejoin="round" stroke-width="0.27"/><path d="M8.17,11.92a1.79,1.79,0,0,0,2.93.47" fill="none" stroke="#8d8d8b" stroke-linecap="round" stroke-linejoin="round" stroke-width="0.27"/></svg>