<svg id="Layer_1" data-name="Layer 1" xmlns="http://www.w3.org/2000/svg" width="0.44in" height="0.44in" viewBox="0 0 31.68 31.68"><title>logo-32</title><path d="M14.73,23.53v2.63s-.09.77,1.33.77c0,0,1,.06,1.06-.63V23.53a7.83,7.83,0,0,1-1.21-1.11A7.15,7.15,0,0,1,14.73,23.53Z" fill="#9c8881"/><path d="M10.11,11S9.93,5.45,7,8.78-.45,18.23.48,20.06s5,3.39,6,1.41S10.11,11,10.11,11Zm11.17-.19s.07-5.61,3.1-2.3,7.79,9.38,6.89,11.3-5,3.56-6.05,1.57-3.94-10.58-3.94-10.58Z" fill="#9c8881" opacity="0.9"/><path d="M15.87,18.11c.82,0,1.48.44,1.48,1.13s-.66.78-1.48.78-1.48-.09-1.48-.78S15.05,18.11,15.87,18.11Z" fill="#9c8881"/><path d="M15.87,19.3v3.09c-.68,1.5-3,2-4.45,1.3a3,3,0,0,1-.82-.55m5.27-.76s2.72,3.41,5.7.64" fill="none" stroke="#9c8881" stroke-linecap="round" stroke-linejoin="round" stroke-width="0.47"/><line x1="15.91" y1="26.96" x2="15.91" y2="25.37" fill="none" stroke="#fff" stroke-linecap="round" stroke-miterlimit="10" stroke-width="0.15"/><path d="M13.85,15.36a1.82,1.82,0,0,0-1.33-.54,1.77,1.77,0,0,0-1.5.75,1.42,1.42,0,0,1,2.83-.21Z" fill="#9c8881"/><circle cx="19.64" cy="14.99" r="1.11" fill="#9c8881"/></svg>