<svg id="Layer_1" data-name="Layer 1" xmlns="http://www.w3.org/2000/svg" width="3.56in" height="3.56in" viewBox="0 0 256.32 256.32"><title>logo-256</title><circle cx="128.02" cy="129.08" r="123.92" fill="none" stroke="#9c8881" stroke-linecap="round" stroke-linejoin="round" stroke-width="3.16" opacity="0.9"/><circle cx="128.02" cy="129.08" r="115.67" fill="none" stroke="#9c8881" stroke-linecap="round" stroke-linejoin="round" stroke-width="3.16" opacity="0.9"/><path d="M49.81,101.23l-12-7.13L39,92l10.21,6,3-5.05L54.07,94Z" fill="#9c8881"/><path d="M62.43,83.93a7.24,7.24,0,1,1-.49-10.26A7.18,7.18,0,0,1,62.43,83.93ZM53.3,75.67a5.08,5.08,0,1,0,6.88-.06A4.76,4.76,0,0,0,53.3,75.67Z" fill="#9c8881"/><path d="M75.27,71.89l-3.49-4.83-8.3-3.92L66,61.36l5.35,2.77,0,0-.86-6,2.33-1.69,1,9.29,3.43,4.75Z" fill="#9c8881"/><path d="M83.93,50.36l1.86-.88L96.55,59.88,94,61.09,91.92,59,87,61.31l.27,2.92-2.46,1.16Zm2.91,8.74,3.52-1.66-4-4h0Z" fill="#9c8881"/><path d="M103.68,57.64l-3.43-13.57,2.41-.61L105.56,55l5.7-1.44.52,2.06Z" fill="#9c8881"/><path d="M134.64,40.23c2.22.13,4.91,1.42,4.74,4.4A4,4,0,0,1,136,48.37l4,6.2-3.08-.17-3.67-5.94-.88,0L132,54.11,129.54,54l.79-14Zm-.81,6.13c1.62.09,2.85-.42,2.93-1.82.07-1.24-.86-2.11-2.3-2.19l-1.78-.1-.23,4Z" fill="#9c8881"/><path d="M147.26,55.84l3.43-13.57,8.47,2.14-.52,2.06-6.07-1.53-.88,3.51L157.76,50,157.24,52l-6.07-1.53-1,3.9,6.07,1.53L155.74,58Z" fill="#9c8881"/><path d="M172.89,51.88c-1-.5-2.13-.37-2.58.59s.59,2,1.44,2.81c1.56,1.52,3.26,3.34,2.06,5.89-1.32,2.78-4.39,2.72-6.49,1.73a7,7,0,0,1-3.77-4.27l2.21-.74a4.74,4.74,0,0,0,2.5,3.09c1.12.53,2.5.52,3.12-.8s-.49-2.27-1.59-3.37c-1.41-1.42-2.8-3.1-1.76-5.29,1.14-2.4,3.59-2.62,5.66-1.63a7.2,7.2,0,0,1,3.42,3.35l-2.08,1A4.69,4.69,0,0,0,172.89,51.88Z" fill="#9c8881"/><path d="M185.46,71.5a4.9,4.9,0,0,0,3.06.95l0,2.27a7.62,7.62,0,0,1-4.44-1.51A7.07,7.07,0,0,1,182.51,63a7.28,7.28,0,0,1,10.33-1.31,7.55,7.55,0,0,1,2.52,3.44l-2.1.83a5,5,0,0,0-1.73-2.52,4.84,4.84,0,0,0-6.93,1.14C182.77,67,183.11,69.74,185.46,71.5Z" fill="#9c8881"/><path d="M205.51,84.89c-3.32,2.89-6.23,3.22-8.82.25s-1.78-5.74,1.54-8.62l5.59-4.87,1.63,1.87-5.91,5.14c-2.14,1.86-2.41,3.66-1.18,5.08s3.06,1.42,5.2-.45l5.91-5.14L211.1,80Z" fill="#9c8881"/><path d="M205.45,96.41l12.2-6.86,4.28,7.62-1.85,1L217,92.75l-3.16,1.77,3.07,5.46-1.85,1L212,95.56l-3.5,2,3.06,5.46-1.85,1Z" fill="#9c8881"/><path d="M122.73,176.56v12.26s-.4,3.57,6.2,3.57c0,0,4.79.28,4.93-2.93v-12.9s-5-3.88-5.64-5.2C128.22,171.35,124,176.13,122.73,176.56Z" fill="#9c8881"/><path d="M101.19,118s-.85-25.75-14.42-10.21-34.78,44-30.48,52.58S79.74,176.18,84.15,167,101.19,118,101.19,118Zm52-.91s.31-26.16,14.46-10.7,36.3,43.75,32.1,52.69-23.53,16.59-28.22,7.32-18.35-49.31-18.35-49.31Z" fill="#9c8881" opacity="0.9"/><path d="M128.06,151.27c3.82,0,6.92,2.06,6.92,5.26s-3.1,3.63-6.92,3.63-6.92-.44-6.92-3.63S124.24,151.27,128.06,151.27Z" fill="#9c8881"/><path d="M128.06,156.84v14.41c-3.17,7-13.8,9.22-20.77,6a13.83,13.83,0,0,1-3.8-2.56m24.57-3.54s12.7,15.9,26.59,3" fill="none" stroke="#9c8881" stroke-linecap="round" stroke-linejoin="round" stroke-width="2.18"/><line x1="128.22" y1="192.54" x2="128.22" y2="185.12" fill="none" stroke="#fff" stroke-linecap="round" stroke-miterlimit="10" stroke-width="0.69"/><path d="M118.61,139.53A8.49,8.49,0,0,0,112.4,137a8.27,8.27,0,0,0-7,3.49,6.64,6.64,0,0,1,13.19-1Z" fill="#9c8881"/><circle cx="145.6" cy="137.82" r="5.17" fill="#9c8881"/></svg>