<svg id="Layer_1" data-name="Layer 1" xmlns="http://www.w3.org/2000/svg" width="0.22in" height="0.22in" viewBox="0 0 15.84 15.84"><title>logo-16</title><path d="M7.4,11v1.27s0,.37.64.37c0,0,.5,0,.51-.3V11A3.79,3.79,0,0,1,8,10.47,3.46,3.46,0,0,1,7.4,11Z" fill="#9c8881"/><path d="M5.17,4.93s-.09-2.67-1.5-1.06S.06,8.44.51,9.33,2.94,11,3.4,10,5.17,4.93,5.17,4.93Zm5.4-.09s0-2.71,1.5-1.11,3.77,4.54,3.33,5.47S13,10.91,12.47,10s-1.9-5.12-1.9-5.12Z" fill="#9c8881" opacity="0.9"/><path d="M8,8.38c.4,0,.72.21.72.55S8.35,9.3,8,9.3s-.72,0-.72-.38S7.56,8.38,8,8.38Z" fill="#9c8881"/><path d="M8,9v1.5a1.71,1.71,0,0,1-2.16.63,1.44,1.44,0,0,1-.39-.27M8,10.45a1.86,1.86,0,0,0,2.76.31" fill="none" stroke="#9c8881" stroke-linecap="round" stroke-linejoin="round" stroke-width="0.23"/><line x1="7.97" y1="12.66" x2="7.97" y2="11.89" fill="none" stroke="#fff" stroke-linecap="round" stroke-miterlimit="10" stroke-width="0.07"/><path d="M7,7.1a.88.88,0,0,0-.64-.26.86.86,0,0,0-.72.36A.69.69,0,0,1,7,7.1Z" fill="#9c8881"/><circle cx="9.77" cy="6.92" r="0.54" fill="#9c8881"/></svg>