<svg id="Layer_1" data-name="Layer 1" xmlns="http://www.w3.org/2000/svg" width="0.89in" height="0.89in" viewBox="0 0 64 64"><title>Logo-64</title><path d="M25.33,28s-1.4-3.18-2.92-.75S18.72,34,19.86,34.91s4.71,1.12,5-.19S25.33,28,25.33,28Z" fill="#8d8d8b"/><path d="M38.6,28s1.4-3.18,2.92-.75,3.69,6.73,2.54,7.66-4.71,1.12-5-.19S38.6,28,38.6,28Z" fill="#8d8d8b"/><circle cx="32.2" cy="34.77" r="1.21" fill="#8d8d8b"/><path d="M32.2,36v2.52a2.42,2.42,0,0,1-3.87.75" fill="none" stroke="#8d8d8b" stroke-linecap="round" stroke-linejoin="round" stroke-width="0.37"/><path d="M32.2,38.51s1.64,2.9,4.07.65" fill="none" stroke="#8d8d8b" stroke-linecap="round" stroke-linejoin="round" stroke-width="0.37"/><circle cx="32.58" cy="32.15" r="31.42" fill="none" stroke="#8d8d8b" stroke-miterlimit="10" stroke-width="0.46"/><circle cx="32.58" cy="32.15" r="29.33" fill="none" stroke="#8d8d8b" stroke-miterlimit="10" stroke-width="0.43"/><path d="M12,19.44l1.78-.12-.33.53-1.69.09,0,.08,1.17.73-.27.43L9.7,19.38l.32-.51a1.49,1.49,0,0,1,.73-.69.92.92,0,0,1,.8.11,1,1,0,0,1,.42.5A.92.92,0,0,1,12,19.44Zm-.67.33.09-.14q.38-.62-.09-.91t-.81.32l-.1.15Z" fill="#8d8d8b"/><path d="M13.52,16.74A1.66,1.66,0,0,1,13,15.51a1.72,1.72,0,0,1,.5-1.26A1.77,1.77,0,0,1,16,14.2a1.66,1.66,0,0,1,.53,1.23,1.78,1.78,0,0,1-1.64,1.8A1.66,1.66,0,0,1,13.52,16.74Zm.36-.37A1.25,1.25,0,0,0,16,15.46a1.31,1.31,0,0,0-1.31-1.25,1.26,1.26,0,0,0-1.23,1.29A1.22,1.22,0,0,0,13.87,16.37Z" fill="#8d8d8b"/><path d="M18.4,12.61l-2-.94.48-.34,1.41.67-.14-1.55.48-.34.19,2.21.84,1.2-.42.29Z" fill="#8d8d8b"/><path d="M23.35,10.56l-1.32.6v.9l-.5.23,0-4,3,2.6-.51.23ZM23,10.21,22,9.38v1.26Z" fill="#8d8d8b"/><path d="M26,7l.71,2.81,1-.24.12.46-1.46.37L25.5,7.12Z" fill="#8d8d8b"/><path d="M33.78,8.13l1,1.48-.62,0-.91-1.42h-.09l-.06,1.38-.51,0,.14-3.38.6,0a1.5,1.5,0,0,1,1,.29.93.93,0,0,1,.3.75,1,1,0,0,1-.23.61A.92.92,0,0,1,33.78,8.13Zm-.62-.41h.16q.72,0,.75-.52t-.68-.55h-.18Z" fill="#8d8d8b"/><path d="M39.17,7.47l-1.32-.29L37.67,8,39,8.25l-.1.47-1.29-.28-.24,1.1,1.32.29-.1.47-1.82-.4.73-3.3,1.82.4Z" fill="#8d8d8b"/><path d="M43.43,9,43,9.09a.72.72,0,0,0-.1-.33.51.51,0,0,0-.23-.17.52.52,0,0,0-.37,0,.37.37,0,0,0-.24.22q-.1.23.19.51l.26.26a1.44,1.44,0,0,1,.4.61.92.92,0,0,1,0,.62,1,1,0,0,1-.58.59,1.07,1.07,0,0,1-.84,0,1,1,0,0,1-.57-.52,1.21,1.21,0,0,1,0-.81l.52.09a.88.88,0,0,0,0,.43.58.58,0,0,0,.77.38.6.6,0,0,0,.34-.49.45.45,0,0,0,0-.17.67.67,0,0,0-.09-.18,1.43,1.43,0,0,0-.16-.19l-.25-.25a.94.94,0,0,1-.31-1.06A.81.81,0,0,1,42,8.11a1.06,1.06,0,0,1,.77,0A1,1,0,0,1,43.43,9Z" fill="#8d8d8b"/><path d="M48.07,11.37l-.33.5a1.41,1.41,0,0,0-.56-.81,1.17,1.17,0,0,0-.94-.17,1.26,1.26,0,0,0-.8.56,1.23,1.23,0,0,0-.19.95,1.19,1.19,0,0,0,.53.79,1.07,1.07,0,0,0,.43.18l.25,0,.3,0-.34.51a1.83,1.83,0,0,1-.9-.3A1.73,1.73,0,0,1,45,11.18a1.74,1.74,0,0,1,1-.73,1.7,1.7,0,0,1,1.48.23A1.73,1.73,0,0,1,48.07,11.37Z" fill="#8d8d8b"/><path d="M50.67,13.33l-1.44,1.44a1.12,1.12,0,0,0-.35.55.76.76,0,0,0,.85.85,1.09,1.09,0,0,0,.55-.35l1.44-1.44.36.36-1.54,1.54a1.22,1.22,0,0,1-.86.39,1.29,1.29,0,0,1-1.3-1.3,1.22,1.22,0,0,1,.39-.86L50.31,13Z" fill="#8d8d8b"/><path d="M54.55,18.8l-.76-1.12-.67.46.74,1.09-.4.27-.74-1.09-.93.64.76,1.12-.4.27L51.1,18.89,53.9,17l1,1.54Z" fill="#8d8d8b"/></svg>