<svg id="Layer_1" data-name="Layer 1" xmlns="http://www.w3.org/2000/svg" width="0.22in" height="0.22in" viewBox="0 0 15.84 15.84"><title>logo-16</title><path d="M7.43,11.53v1.35s0,.39.68.39c0,0,.53,0,.54-.32V11.53A3.93,3.93,0,0,1,8,11,3.58,3.58,0,0,1,7.43,11.53Z" fill="#9c8881"/><path d="M5.06,5.09S5,2.26,3.48,4-.35,8.81.13,9.75s2.58,1.74,3.06.72S5.06,5.09,5.06,5.09ZM10.78,5s0-2.88,1.59-1.18,4,4.81,3.53,5.79-2.59,1.82-3.1.8S10.78,5,10.78,5Z" fill="#9c8881"/><circle cx="8.01" cy="8.59" r="0.76" fill="#9c8881"/><path d="M8,9.36v1.58a1.81,1.81,0,0,1-2.28.66,1.52,1.52,0,0,1-.42-.28M8,10.94s1.4,1.75,2.92.33" fill="none" stroke="#9c8881" stroke-linecap="round" stroke-linejoin="round" stroke-width="0.24"/><line x1="8.03" y1="13.28" x2="8.03" y2="12.47" fill="none" stroke="#fff" stroke-linecap="round" stroke-miterlimit="10" stroke-width="0.08"/><circle cx="6" cy="7.11" r="0.51" fill="#9c8881"/><circle cx="10.15" cy="7.11" r="0.51" fill="#9c8881"/></svg>