<svg id="Layer_1" data-name="Layer 1" xmlns="http://www.w3.org/2000/svg" width="0.89in" height="0.89in" viewBox="0 0 64.08 64.08"><title>logo-64</title><circle cx="31.61" cy="32.33" r="30.84" fill="none" stroke="#9c8881" stroke-linecap="round" stroke-linejoin="round" stroke-width="0.79" opacity="0.9"/><circle cx="31.61" cy="32.33" r="28.78" fill="none" stroke="#9c8881" stroke-linecap="round" stroke-linejoin="round" stroke-width="0.79" opacity="0.9"/><path d="M12.14,25.4l-3-1.77.31-.53L12,24.6l.75-1.26.45.27Z" fill="#9c8881"/><path d="M15.28,21.09a1.8,1.8,0,1,1-.12-2.55A1.79,1.79,0,0,1,15.28,21.09ZM13,19a1.26,1.26,0,1,0,1.71,0A1.19,1.19,0,0,0,13,19Z" fill="#9c8881"/><path d="M18.48,18.1l-.87-1.2-2.07-1,.62-.45,1.33.69h0l-.21-1.5.58-.42.26,2.31L19,17.74Z" fill="#9c8881"/><path d="M20.63,12.74l.46-.22,2.68,2.59-.64.3-.51-.52-1.21.57.07.73-.61.29Zm.72,2.18.88-.41-1-1h0Z" fill="#9c8881"/><path d="M25.55,14.55l-.85-3.38.6-.15L26,13.89l1.42-.36.13.51Z" fill="#9c8881"/><path d="M33.25,10.22c.55,0,1.22.35,1.18,1.09a1,1,0,0,1-.85.93l1,1.54-.77,0-.91-1.48h-.22l-.08,1.42-.62,0,.2-3.48Zm-.2,1.52c.4,0,.71-.1.73-.45s-.22-.53-.57-.55l-.44,0-.06,1Z" fill="#9c8881"/><path d="M36.39,14.1l.85-3.38,2.11.53-.13.51-1.51-.38-.22.87,1.51.38-.13.51-1.51-.38-.24,1,1.51.38-.13.51Z" fill="#9c8881"/><path d="M42.77,13.12c-.26-.12-.53-.09-.64.15s.15.49.36.7c.39.38.81.83.51,1.47a1.15,1.15,0,0,1-1.61.43,1.74,1.74,0,0,1-.94-1.06l.55-.19a1.18,1.18,0,0,0,.62.77.54.54,0,0,0,.78-.2c.14-.3-.12-.56-.4-.84s-.7-.77-.44-1.32A1,1,0,0,1,43,12.62a1.79,1.79,0,0,1,.85.83l-.52.24A1.17,1.17,0,0,0,42.77,13.12Z" fill="#9c8881"/><path d="M45.9,18a1.22,1.22,0,0,0,.76.24v.56a1.9,1.9,0,0,1-1.11-.37,1.76,1.76,0,0,1-.4-2.55,1.81,1.81,0,0,1,2.57-.33,1.88,1.88,0,0,1,.63.86l-.52.21a1.24,1.24,0,0,0-.43-.63,1.2,1.2,0,0,0-1.72.28A1.16,1.16,0,0,0,45.9,18Z" fill="#9c8881"/><path d="M50.89,21.33c-.83.72-1.55.8-2.19.06s-.44-1.43.38-2.15L50.47,18l.4.47L49.4,19.78c-.53.46-.6.91-.29,1.26s.76.35,1.29-.11l1.47-1.28.4.47Z" fill="#9c8881"/><path d="M50.87,24.2l3-1.71L55,24.39l-.46.26-.76-1.36-.79.44.76,1.36-.46.26L52.51,24l-.87.49.76,1.36-.46.26Z" fill="#9c8881"/><path d="M30.29,44.14v3.05s-.1.89,1.54.89c0,0,1.19.07,1.23-.73V44.14a9.08,9.08,0,0,1-1.4-1.29A8.3,8.3,0,0,1,30.29,44.14Z" fill="#9c8881"/><path d="M24.93,29.57s-.21-6.41-3.59-2.54-8.65,11-7.59,13.09,5.84,3.93,6.93,1.64S24.93,29.57,24.93,29.57Zm13-.23s.08-6.51,3.6-2.66,9,10.89,8,13.11-5.86,4.13-7,1.82-4.57-12.27-4.57-12.27Z" fill="#9c8881" opacity="0.9"/><path d="M31.62,37.85c1,0,1.72.51,1.72,1.31s-.77.9-1.72.9-1.72-.11-1.72-.9S30.66,37.85,31.62,37.85Z" fill="#9c8881"/><path d="M31.62,39.24v3.59c-.79,1.74-3.44,2.29-5.17,1.5a3.44,3.44,0,0,1-.95-.64m6.11-.88s3.16,4,6.62.74" fill="none" stroke="#9c8881" stroke-linecap="round" stroke-linejoin="round" stroke-width="0.54"/><line x1="31.66" y1="48.12" x2="31.66" y2="46.27" fill="none" stroke="#fff" stroke-linecap="round" stroke-miterlimit="10" stroke-width="0.17"/><path d="M29.26,34.93a2.11,2.11,0,0,0-1.55-.63,2.06,2.06,0,0,0-1.74.87,1.65,1.65,0,0,1,3.28-.24Z" fill="#9c8881"/><circle cx="35.98" cy="34.51" r="1.29" fill="#9c8881"/></svg>