<svg id="Layer_1" data-name="Layer 1" xmlns="http://www.w3.org/2000/svg" width="0.89in" height="0.89in" viewBox="0 0 64.08 64.08"><title>logo-64</title><path d="M31.13,43.17v3S31,47,32.64,47c0,0,1.17.07,1.2-.71V43.17a8.72,8.72,0,0,1-1.37-1.27A7.93,7.93,0,0,1,31.13,43.17Z" fill="#9c8881"/><path d="M25.89,28.9s-.21-6.28-3.51-2.49S13.9,37.14,14.94,39.23s5.71,3.85,6.79,1.6S25.89,28.9,25.89,28.9Zm12.68-.22s.08-6.38,3.52-2.61,8.84,10.66,7.82,12.84S44.18,43,43,40.7,38.57,28.68,38.57,28.68Z" fill="#9c8881"/><circle cx="32.43" cy="36.65" r="1.69" fill="#9c8881"/><path d="M32.43,38.36v3.51c-.77,1.69-3.36,2.25-5.06,1.47a3.37,3.37,0,0,1-.93-.63m6-.86s3.09,3.87,6.48.74" fill="none" stroke="#9c8881" stroke-linecap="round" stroke-linejoin="round" stroke-width="0.53"/><circle cx="31.79" cy="31.6" r="30.2" fill="none" stroke="#9c8881" stroke-linecap="round" stroke-linejoin="round" stroke-width="0.77"/><circle cx="31.79" cy="31.6" r="28.19" fill="none" stroke="#9c8881" stroke-linecap="round" stroke-linejoin="round" stroke-width="0.77"/><path d="M12,20.35l1.71-.12-.32.51-1.62.09v.08l1.12.7-.26.41L9.8,20.29l.31-.49a1.43,1.43,0,0,1,.7-.66.88.88,0,0,1,.77.11,1,1,0,0,1,.4.48A.88.88,0,0,1,12,20.35Zm-.64.32.09-.13q.37-.6-.09-.87t-.78.31l-.1.14Zm2.1-2.91a1.6,1.6,0,0,1-.5-1.18,1.65,1.65,0,0,1,.48-1.21,1.7,1.7,0,0,1,2.4,0,1.6,1.6,0,0,1,.51,1.18,1.71,1.71,0,0,1-1.58,1.73A1.6,1.6,0,0,1,13.47,17.75Zm.35-.36a1.2,1.2,0,0,0,2-.87,1.26,1.26,0,0,0-1.26-1.2,1.21,1.21,0,0,0-1.18,1.24h0a1.17,1.17,0,0,0,.39.84Zm4.34-3.61-1.92-.9.46-.33,1.36.64-.13-1.49.46-.33.18,2.12.81,1.15-.4.28Zm4.76-2-1.27.58v.86l-.48.22V9.63l2.88,2.5-.49.22Zm-.34-.34-1-.8v1.21Zm2.88-3.08.68,2.7,1-.23.12.44-1.4.36L25,8.51Zm7.48,1.09,1,1.42h-.6l-.87-1.36h-.09l-.06,1.33H31.8l.13-3.25h.58a1.44,1.44,0,0,1,1,.28.89.89,0,0,1,.29.72,1,1,0,0,1-.22.59A.88.88,0,0,1,32.94,9.48Zm-.6-.39h.15q.69,0,.72-.5t-.65-.53h-.17Zm5.78-.24-1.27-.28-.17.79L38,9.59l-.1.45-1.24-.27-.23,1.06,1.27.28-.1.45-1.75-.38L36.52,8l1.75.38Zm4.09,1.47-.41.09a.69.69,0,0,0-.1-.32.49.49,0,0,0-.22-.16.5.5,0,0,0-.36,0,.36.36,0,0,0-.23.21q-.1.22.18.49l.25.25a1.38,1.38,0,0,1,.38.59.88.88,0,0,1,0,.6,1,1,0,0,1-.56.57,1,1,0,0,1-.81,0,1,1,0,0,1-.55-.5,1.16,1.16,0,0,1,0-.78l.5.09a.85.85,0,0,0,0,.41.56.56,0,0,0,.69.38l.05,0a.58.58,0,0,0,.33-.47.43.43,0,0,0,0-.16.64.64,0,0,0-.09-.17,1.37,1.37,0,0,0-.15-.18L40.89,11a.9.9,0,0,1-.3-1,.78.78,0,0,1,.25-.5,1,1,0,0,1,.74,0A1,1,0,0,1,42.21,10.31Zm4.46,2.28-.32.48a1.36,1.36,0,0,0-.54-.78,1.12,1.12,0,0,0-.9-.16,1.21,1.21,0,0,0-.77.54,1.18,1.18,0,0,0-.18.91,1.14,1.14,0,0,0,.51.76,1,1,0,0,0,.41.17h.53l-.33.49a1.76,1.76,0,0,1-.86-.29,1.66,1.66,0,0,1-.51-2.3h0a1.67,1.67,0,0,1,1-.7,1.63,1.63,0,0,1,1.42.22A1.66,1.66,0,0,1,46.67,12.59Zm2.5,1.88-1.38,1.38a1.08,1.08,0,0,0-.34.53.73.73,0,0,0,.63.82h.18a1,1,0,0,0,.53-.34l1.38-1.38.35.35L49,17.31a1.17,1.17,0,0,1-.83.37A1.24,1.24,0,0,1,47,16.45s0,0,0,0a1.17,1.17,0,0,1,.37-.83l1.48-1.45Zm3.73,5.26-.73-1.08-.64.44.71,1-.38.26-.71-1-.89.62L51,21l-.38.26-1-1.49L52.28,18l1,1.48Z" fill="#9c8881"/><line x1="32.47" y1="47.06" x2="32.47" y2="45.26" fill="none" stroke="#fff" stroke-linecap="round" stroke-miterlimit="10" stroke-width="0.17"/><circle cx="27.96" cy="33.38" r="1.13" fill="#9c8881"/><circle cx="37.16" cy="33.38" r="1.13" fill="#9c8881"/></svg>