<svg id="Layer_1" data-name="Layer 1" xmlns="http://www.w3.org/2000/svg" width="0.44in" height="0.44in" viewBox="0 0 31.68 31.68"><title>logo-32</title><path d="M14.63,23v2.66s-.09.78,1.35.78c0,0,1,.06,1.07-.64V23a7.78,7.78,0,0,1-1.23-1.13A7.07,7.07,0,0,1,14.63,23Z" fill="#9c8881"/><path d="M10,10.27S9.77,4.67,6.82,8-.74,17.62.19,19.48s5.1,3.44,6.06,1.43S10,10.27,10,10.27Zm11.31-.2s.07-5.69,3.14-2.33,7.89,9.51,7,11.45-5.12,3.61-6.13,1.59S21.26,10.07,21.26,10.07Z" fill="#9c8881"/><circle cx="15.79" cy="17.18" r="1.5" fill="#9c8881"/><path d="M15.79,18.71v3.13c-.69,1.51-3,2-4.51,1.31a3,3,0,0,1-.83-.56m5.34-.77s2.76,3.46,5.78.66" fill="none" stroke="#9c8881" stroke-linecap="round" stroke-linejoin="round" stroke-width="0.47"/><line x1="15.83" y1="26.47" x2="15.83" y2="24.86" fill="none" stroke="#fff" stroke-linecap="round" stroke-miterlimit="10" stroke-width="0.15"/><circle cx="11.81" cy="14.26" r="1.01" fill="#9c8881"/><circle cx="20.01" cy="14.26" r="1.01" fill="#9c8881"/></svg>