<svg id="Layer_1" data-name="Layer 1" xmlns="http://www.w3.org/2000/svg" width="1.11in" height="1.11in" viewBox="0 0 79.92 79.92"><title>logo-white</title><circle cx="39.38" cy="39.78" r="38.62" fill="none" stroke="#fff" stroke-linecap="round" stroke-linejoin="round" stroke-width="0.99" opacity="0.9"/><circle cx="39.38" cy="39.78" r="36.05" fill="none" stroke="#fff" stroke-linecap="round" stroke-linejoin="round" stroke-width="0.99" opacity="0.9"/><path d="M15,31.1l-3.75-2.22.39-.66,3.18,1.89.93-1.57.57.34Z" fill="#fff"/><path d="M18.94,25.7a2.26,2.26,0,1,1-.15-3.2A2.24,2.24,0,0,1,18.94,25.7ZM16.1,23.13a1.58,1.58,0,1,0,2.14,0A1.48,1.48,0,0,0,16.1,23.13Z" fill="#fff"/><path d="M22.95,22l-1.09-1.51-2.59-1.22.77-.56,1.67.86h0l-.27-1.87.73-.53L22.5,20l1.07,1.48Z" fill="#fff"/><path d="M25.65,15.25l.58-.27,3.35,3.24-.8.38-.64-.65-1.52.72.08.91-.77.36ZM26.55,18l1.1-.52L26.4,16.19h0Z" fill="#fff"/><path d="M31.8,17.51l-1.07-4.23.75-.19.91,3.59,1.78-.45.16.64Z" fill="#fff"/><path d="M41.45,12.09c.69,0,1.53.44,1.48,1.37a1.24,1.24,0,0,1-1.07,1.16l1.25,1.93-1-.05L41,14.65l-.27,0-.1,1.78-.77,0L40.1,12ZM41.2,14c.5,0,.89-.13.91-.57s-.27-.66-.72-.68l-.55,0L40.77,14Z" fill="#fff"/><path d="M45.38,17l1.07-4.23,2.64.67-.16.64L47,13.55l-.28,1.09,1.89.48-.16.64-1.89-.48-.31,1.21,1.89.48-.16.64Z" fill="#fff"/><path d="M53.37,15.72c-.33-.16-.66-.11-.8.18s.18.62.45.87c.49.47,1,1,.64,1.83a1.44,1.44,0,0,1-2,.54,2.18,2.18,0,0,1-1.18-1.33l.69-.23a1.48,1.48,0,0,0,.78,1,.67.67,0,0,0,1-.25c.18-.38-.15-.71-.5-1s-.87-1-.55-1.65a1.23,1.23,0,0,1,1.76-.51,2.24,2.24,0,0,1,1.06,1l-.65.31A1.46,1.46,0,0,0,53.37,15.72Z" fill="#fff"/><path d="M57.28,21.83a1.53,1.53,0,0,0,1,.29v.71a2.37,2.37,0,0,1-1.38-.47,2.2,2.2,0,0,1-.5-3.19,2.27,2.27,0,0,1,3.22-.41,2.35,2.35,0,0,1,.79,1.07l-.65.26a1.56,1.56,0,0,0-.54-.79,1.51,1.51,0,0,0-2.16.35A1.45,1.45,0,0,0,57.28,21.83Z" fill="#fff"/><path d="M63.53,26c-1,.9-1.94,1-2.75.08s-.56-1.79.48-2.69L63,21.88l.51.58-1.84,1.6c-.67.58-.75,1.14-.37,1.58s1,.44,1.62-.14l1.84-1.6.51.58Z" fill="#fff"/><path d="M63.51,29.59l3.8-2.14,1.33,2.37-.58.32-1-1.7-1,.55,1,1.7-.58.32-1-1.7-1.09.61,1,1.7-.58.32Z" fill="#fff"/><path d="M37.73,54.57v3.82s-.12,1.11,1.93,1.11c0,0,1.49.09,1.54-.91v-4A11.38,11.38,0,0,1,39.45,53,10.39,10.39,0,0,1,37.73,54.57Z" fill="#fff"/><path d="M31,36.32s-.26-8-4.49-3.18S15.69,46.86,17,49.53s7.31,4.93,8.68,2.05S31,36.32,31,36.32ZM47.24,36s.1-8.15,4.51-3.34,11.31,13.63,10,16.42S54.42,54.29,53,51.41,47.24,36,47.24,36Z" fill="#fff" opacity="0.9"/><path d="M39.4,46.69c1.19,0,2.16.64,2.16,1.64s-1,1.13-2.16,1.13-2.16-.14-2.16-1.13S38.21,46.69,39.4,46.69Z" fill="#fff"/><path d="M39.4,48.43v4.49c-1,2.18-4.3,2.87-6.47,1.88a4.31,4.31,0,0,1-1.18-.8m7.66-1.1s4,5,8.29.93" fill="none" stroke="#fff" stroke-linecap="round" stroke-linejoin="round" stroke-width="0.68"/><line x1="39.45" y1="59.55" x2="39.45" y2="57.24" fill="#9c8881" stroke="#9c8881" stroke-miterlimit="10" stroke-width="0.21"/><path d="M36.45,42.37a2.65,2.65,0,0,0-1.93-.79,2.58,2.58,0,0,0-2.18,1.09,2.07,2.07,0,0,1,4.11-.3Z" fill="#fff"/><circle cx="44.86" cy="41.83" r="1.61" fill="#fff"/></svg>