<svg id="Layer_1" data-name="Layer 1" xmlns="http://www.w3.org/2000/svg" width="3.56in" height="3.56in" viewBox="0 0 256.32 256.32"><title>logo-256</title><path d="M125.12,175v12.29s-.4,3.58,6.22,3.58c0,0,4.8.28,4.94-2.94V175s-5-3.89-5.65-5.21C130.63,169.78,126.41,174.57,125.12,175Z" fill="#9c8881"/><path d="M103.53,116.29s-.85-25.82-14.46-10.24S54.2,150.2,58.51,158.77s23.51,15.85,27.93,6.6S103.53,116.29,103.53,116.29Zm52.18-.91s.31-26.23,14.5-10.73,36.39,43.86,32.18,52.83-23.59,16.63-28.29,7.34S155.7,115.38,155.7,115.38Z" fill="#9c8881"/><circle cx="130.47" cy="148.18" r="6.94" fill="#9c8881"/><path d="M130.47,155.23v14.45c-3.18,7-13.84,9.24-20.82,6.06a13.87,13.87,0,0,1-3.81-2.57m24.63-3.55s12.73,15.94,26.66,3" fill="none" stroke="#9c8881" stroke-linecap="round" stroke-linejoin="round" stroke-width="2.19"/><circle cx="127.81" cy="127.4" r="124.24" fill="none" stroke="#9c8881" stroke-linecap="round" stroke-linejoin="round" stroke-width="3.17"/><circle cx="127.81" cy="127.4" r="115.97" fill="none" stroke="#9c8881" stroke-linecap="round" stroke-linejoin="round" stroke-width="3.17"/><path d="M46.44,81.09l7-.47-1.3,2.1-6.68.36v.32l4.63,2.89L49,88l-11.7-7.12,1.27-2a5.89,5.89,0,0,1,2.89-2.73,3.64,3.64,0,0,1,3.16.43,4,4,0,0,1,1.66,2A3.64,3.64,0,0,1,46.44,81.09Zm-2.65,1.3.36-.55q1.5-2.45-.36-3.6t-3.2,1.27l-.4.59Zm8.66-12a6.56,6.56,0,0,1-2.06-4.86,6.8,6.8,0,0,1,2-5,7,7,0,0,1,9.89-.2,6.56,6.56,0,0,1,2.1,4.86,7,7,0,0,1-6.48,7.12A6.56,6.56,0,0,1,52.45,70.42ZM53.87,69a4.94,4.94,0,0,0,8.38-3.6,5.18,5.18,0,0,0-5.18-4.94,5,5,0,0,0-4.86,5.1h0A4.82,4.82,0,0,0,53.83,69ZM71.74,54.09l-7.91-3.72L65.73,49l5.58,2.65-.55-6.13,1.9-1.34.75,8.74,3.32,4.74-1.66,1.15ZM91.32,46,86.1,48.35v3.56l-2,.91V37L96,47.29l-2,.91ZM89.93,44.6l-4-3.28v5ZM101.79,31.9,104.6,43l4-.95.47,1.82-5.77,1.46-3.44-13Zm30.76,4.47,4,5.85h-2.45l-3.6-5.61h-.36l-.24,5.46h-2l.55-13.36h2.37a5.93,5.93,0,0,1,4,1.15,3.68,3.68,0,0,1,1.19,3,4,4,0,0,1-.91,2.41A3.64,3.64,0,0,1,132.56,36.37Zm-2.45-1.62h.63q2.85,0,3-2.06T131,30.52h-.71Zm23.76-1-5.22-1.15-.71,3.24,5.26,1-.4,1.86-5.1-1.11-.95,4.35L152,43.09l-.4,1.86-7.2-1.58,2.89-13,7.2,1.58Zm16.84,6-1.7.36a2.85,2.85,0,0,0-.4-1.3,2,2,0,0,0-.91-.67,2.06,2.06,0,0,0-1.46,0,1.46,1.46,0,0,0-.95.87q-.4.91.75,2l1,1a5.69,5.69,0,0,1,1.58,2.41,3.64,3.64,0,0,1,0,2.45,4,4,0,0,1-2.29,2.33,4.23,4.23,0,0,1-3.32,0,4,4,0,0,1-2.25-2.06,4.78,4.78,0,0,1,0-3.2l2.06.36a3.48,3.48,0,0,0,0,1.7,2.29,2.29,0,0,0,2.84,1.57l.21-.07a2.37,2.37,0,0,0,1.34-1.94,1.78,1.78,0,0,0,0-.67,2.65,2.65,0,0,0-.36-.71,5.65,5.65,0,0,0-.63-.75l-1-1A3.72,3.72,0,0,1,164,38.35a3.2,3.2,0,0,1,1-2.06,4.19,4.19,0,0,1,3,0A4,4,0,0,1,170.71,39.81Zm18.35,9.37-1.3,2a5.58,5.58,0,0,0-2.21-3.2,4.63,4.63,0,0,0-3.72-.67,5,5,0,0,0-3.16,2.21,4.86,4.86,0,0,0-.75,3.76,4.71,4.71,0,0,0,2.1,3.12,4.23,4.23,0,0,0,1.7.71h2.17l-1.34,2A7.24,7.24,0,0,1,179,57.92a6.84,6.84,0,0,1-2.08-9.45l0,0a6.88,6.88,0,0,1,4-2.89,6.72,6.72,0,0,1,5.85.91A6.84,6.84,0,0,1,189.06,49.18Zm10.28,7.75-5.69,5.69a4.43,4.43,0,0,0-1.38,2.17,3,3,0,0,0,3.36,3.36,4.31,4.31,0,0,0,2.17-1.38l5.69-5.69,1.42,1.42-6.09,6.09a4.82,4.82,0,0,1-3.4,1.54,5.1,5.1,0,0,1-5.14-5.06s0-.05,0-.08a4.82,4.82,0,0,1,1.54-3.4l6.09-6Zm15.34,21.63-3-4.43L209,76,212,80.26l-1.58,1.07L207.45,77l-3.68,2.53,3,4.43L205.19,85,201,78.92l11.07-7.47,4,6.09Z" fill="#9c8881"/><line x1="130.63" y1="191.02" x2="130.63" y2="183.58" fill="none" stroke="#fff" stroke-linecap="round" stroke-miterlimit="10" stroke-width="0.69"/><circle cx="112.08" cy="134.74" r="4.64" fill="#9c8881"/><circle cx="149.93" cy="134.74" r="4.64" fill="#9c8881"/></svg>