<svg id="Layer_1" width="216" height="86" data-name="Layer 1" viewBox="0 0 216 86">
  <rect width="194.47" height="69.66" x="9.95" y="9.4" fill="#fff" stroke="#756661" stroke-miterlimit="10" stroke-width="2.86" rx="21.29" ry="21.29"/>
  <path fill="#756661" d="M65.92 30.68a12 12 0 1 1-11.78 12 11.83 11.83 0 0 1 11.78-12zm0 20.89a8.93 8.93 0 0 0 0-17.84 8.72 8.72 0 0 0-8.63 8.94 8.69 8.69 0 0 0 8.63 8.9z"/>
  <path fill="#756661" d="M96.9 31v3h-7.08v20.28h-3.18V33.93h-7.08V31z"/>
  <path fill="#756661" d="M118.63 54.28h-3.18V44.13h-11.28v10.15H101V31h3.15v10.25h11.28V31h3.18z"/>
  <path fill="#756661" d="M138.81 31v2.9h-10.67v7.45h9.31v2.95h-9.31v7h11v2.95H125V31z"/>
  <path fill="#756661" d="M160.14 54.28h-3.83l-6-8.74h-3v8.74h-3.18V31h9c4.87 0 6.87 3.61 6.87 7.27 0 3.45-1.73 6.81-6.09 7.18zM147.31 33.9v8.7h5.55c2.84 0 3.89-2.17 3.89-4.33s-1-4.37-3.76-4.37z"/>
</svg>
